<svg viewBox="0 0 512 512" xml:space="preserve" xmlns="http://www.w3.org/2000/svg"><g stroke="#003049" stroke-linecap="round" stroke-linejoin="round" stroke-miterlimit="10" stroke-width="20.148" class="stroke-6c6caa"></g><g stroke="#003049" stroke-linecap="round" stroke-linejoin="round" stroke-miterlimit="10" stroke-width="20.176" class="stroke-6c6caa"><path clip-rule="evenodd" d="m163.717 186.179-.229 17.318 312.382.057c-4.686 24.949-55.813 75.59-87.791 90.022-13.945-1.172-28.406-3.229-43.408-6.173-54.24-13.289-103.366-14.404-146.061-.286-45.639 12.031-82.589 14.232-106.566 1.715-4.629-2.344-9.23-4.201-13.86-5.63-43.752-41.467 18.033-97.08 85.533-97.023h0z" fill="#ffffff" fill-rule="evenodd" class="fill-f9e5d3"></path><path fill="none" d="M455.467 238.02H137.312M493.99 283.431c-42.752 13.231-92.105 15.261-149.318 3.973-54.24-13.289-103.366-14.404-146.061-.286-45.639 12.031-82.589 14.232-106.566 1.715-24.348-12.46-48.696-10.975-73.044-3.229M437.436 337.758c-36.266 3.602-75.275 7.06-115.426-12.745-31.693-12.118-62.9-20.634-102.537-.258-68.93 26.778-112.682 9.803-126.685 5.83-14.003-4.001-32.807-19.319-56.098-6.459M463.469 333.214l13.603-2.829"></path><path clip-rule="evenodd" fill="#669bbc" fill-rule="evenodd" d="m215.243 157-.343 46.526 134.258.142-77.217-46.583z" class="fill-dcf2ff"></path><path fill="none" d="m251.851 157.057.086 46.726M105.533 236.219H67.268"></path></g><g stroke="#003049" stroke-linecap="round" stroke-linejoin="round" stroke-miterlimit="10" stroke-width="20.176" class="stroke-6c6caa"></g><g stroke="#003049" stroke-linecap="round" stroke-linejoin="round" stroke-miterlimit="10" stroke-width="20.148" class="stroke-6c6caa"></g><g stroke="#003049" stroke-linecap="round" stroke-linejoin="round" stroke-miterlimit="10" stroke-width="20.176" class="stroke-6c6caa"></g><g stroke="#003049" stroke-linecap="round" stroke-linejoin="round" stroke-miterlimit="10" stroke-width="20.176" class="stroke-6c6caa"></g><g stroke="#003049" stroke-linecap="round" stroke-linejoin="round" stroke-miterlimit="10" stroke-width="20.148" class="stroke-6c6caa"></g><g stroke="#003049" stroke-linecap="round" stroke-linejoin="round" stroke-miterlimit="10" stroke-width="20.176" class="stroke-6c6caa"></g><g stroke="#003049" stroke-linecap="round" stroke-linejoin="round" stroke-miterlimit="10" stroke-width="20.148" class="stroke-6c6caa"></g><g stroke="#003049" stroke-linecap="round" stroke-linejoin="round" stroke-miterlimit="10" stroke-width="20.148" class="stroke-6c6caa"></g><g stroke="#003049" stroke-linecap="round" stroke-linejoin="round" stroke-miterlimit="10" stroke-width="20.176" class="stroke-6c6caa"></g><g stroke="#003049" stroke-linecap="round" stroke-linejoin="round" stroke-miterlimit="10" stroke-width="20.176" class="stroke-6c6caa"></g><g stroke="#003049" stroke-linecap="round" stroke-linejoin="round" stroke-miterlimit="10" stroke-width="20.176" class="stroke-6c6caa"></g><g stroke="#003049" stroke-linecap="round" stroke-linejoin="round" stroke-miterlimit="10" stroke-width="20.148" class="stroke-6c6caa"></g><g stroke="#003049" stroke-linecap="round" stroke-linejoin="round" stroke-miterlimit="10" stroke-width="20.176" class="stroke-6c6caa"></g><g stroke="#003049" stroke-linecap="round" stroke-linejoin="round" stroke-miterlimit="10" stroke-width="20.176" class="stroke-6c6caa"></g><g stroke="#003049" stroke-linecap="round" stroke-linejoin="round" stroke-miterlimit="10" stroke-width="20.148" class="stroke-6c6caa"></g><g stroke="#003049" stroke-linecap="round" stroke-linejoin="round" stroke-miterlimit="10" stroke-width="20.148" class="stroke-6c6caa"></g></svg>